<svg width="91" height="91" fill="none" xmlns="http://www.w3.org/2000/svg"><path d="M73.227 73.227H17.773c-3.27 0-5.971-2.702-5.971-5.972v-35.69c0-3.27 2.701-5.971 5.971-5.971h11.944c.285 0 .995-.427 1.138-.711l2.132-4.408c.854-1.564 2.844-2.844 4.693-2.844h15.782c1.849 0 3.84 1.28 4.693 2.844l2.133 4.408c.142.284.71.71 1.137.71h11.944c3.27 0 5.972 2.702 5.972 5.973v35.689c-.143 3.27-2.844 5.972-6.114 5.972Zm-55.454-43.51c-1.137 0-1.99.853-1.99 1.99v35.69c0 1.137.853 1.99 1.99 1.99h55.454c1.137 0 1.99-.853 1.99-1.99v-35.69c0-1.137-.853-1.99-1.99-1.99H61.283c-1.849 0-3.84-1.28-4.692-2.844l-2.133-4.407c-.142-.285-.711-.711-1.138-.711H37.538c-.285 0-.996.426-1.138.71l-2.133 4.408c-.853 1.564-2.844 2.844-4.692 2.844H17.773Z" fill="#134563"/><path d="M45.5 65.264c-9.81 0-17.773-7.962-17.773-17.773S35.689 29.717 45.5 29.717c9.81 0 17.773 7.963 17.773 17.774 0 9.81-7.962 17.773-17.773 17.773Zm0-31.708c-7.678 0-13.934 6.257-13.934 13.935 0 7.678 6.256 13.934 13.934 13.934 7.678 0 13.934-6.256 13.934-13.934 0-7.678-6.256-13.935-13.934-13.935ZM67.255 33.556c0 1.138-.853 1.99-1.99 1.99-1.138 0-1.992-.852-1.992-1.99 0-1.137.854-1.99 1.991-1.99 1.138 0 1.99.995 1.99 1.99ZM19.764 21.755h7.963v1.99h-7.963v-1.99Z" fill="#134563"/><path d="M45.5 39.528v-1.99c-5.403 0-9.953 4.407-9.953 9.953h1.99a7.95 7.95 0 0 1 7.963-7.963Z" fill="#134563"/></svg>